<svg width="125" height="20" viewBox="0 0 125 20" fill="none" xmlns="http://www.w3.org/2000/svg">
<path d="M0.345314 13.791H0.905861C1.23399 15.1126 1.88112 16.1243 2.84727 16.8262C3.81341 17.528 4.99375 17.8789 6.38828 17.8789C6.91693 17.8789 7.4319 17.806 7.9332 17.6602C8.44362 17.5143 8.90847 17.3047 9.32774 17.0312C9.75612 16.7487 10.0979 16.3704 10.3531 15.8965C10.6174 15.4225 10.7496 14.8893 10.7496 14.2969C10.7496 13.8594 10.6949 13.4811 10.5855 13.1621C10.4762 12.834 10.3349 12.5697 10.1617 12.3691C9.99766 12.1595 9.76068 11.9818 9.45078 11.8359C9.15 11.681 8.85833 11.5625 8.57578 11.4805C8.29323 11.3984 7.92865 11.3118 7.48203 11.2207C6.72552 11.0658 6.07839 10.929 5.54063 10.8105C5.01198 10.6829 4.46966 10.5371 3.91367 10.373C3.35768 10.1999 2.8974 10.0221 2.53281 9.83984C2.16823 9.64844 1.81276 9.42969 1.46641 9.18359C1.12917 8.92839 0.864845 8.65039 0.673439 8.34961C0.491147 8.04883 0.340757 7.70247 0.222267 7.31055C0.112892 6.90951 0.0582047 6.46745 0.0582047 5.98438C0.0582047 4.55339 0.746356 3.33203 2.12266 2.32031C3.49896 1.30859 5.28542 0.802734 7.48203 0.802734C8.18386 0.802734 9.01784 0.884766 9.98399 1.04883C10.9592 1.21289 11.6747 1.4362 12.1305 1.71875C12.1031 2.8125 12.1396 4.11133 12.2398 5.61523H11.6793C11.5882 5.0319 11.3831 4.52148 11.0641 4.08398C10.7542 3.64648 10.3759 3.30924 9.9293 3.07227C9.48268 2.82617 9.01784 2.64844 8.53477 2.53906C8.05169 2.42057 7.55039 2.36133 7.03086 2.36133C5.58164 2.36133 4.45599 2.66211 3.65391 3.26367C2.86094 3.86523 2.46445 4.63086 2.46445 5.56055C2.46445 5.89779 2.4918 6.18945 2.54649 6.43555C2.60117 6.67253 2.71511 6.89128 2.88828 7.0918C3.06146 7.2832 3.23919 7.44271 3.42149 7.57031C3.61289 7.6888 3.90912 7.81185 4.31016 7.93945C4.7112 8.06706 5.09401 8.17188 5.4586 8.25391C5.82318 8.33594 6.33815 8.44531 7.00352 8.58203C7.59597 8.70052 8.07904 8.80534 8.45274 8.89648C8.83555 8.97852 9.26393 9.09701 9.73789 9.25195C10.221 9.4069 10.6129 9.56641 10.9137 9.73047C11.2145 9.88542 11.5198 10.0905 11.8297 10.3457C12.1487 10.6009 12.3948 10.8835 12.568 11.1934C12.7411 11.5033 12.8824 11.8724 12.9918 12.3008C13.1103 12.7201 13.1695 13.1895 13.1695 13.709C13.1695 14.502 13.0146 15.2402 12.7047 15.9238C12.4039 16.5983 11.9527 17.2044 11.3512 17.7422C10.7496 18.2708 9.95664 18.6901 8.97227 19C7.99701 19.3008 6.87591 19.4512 5.60899 19.4512C3.63112 19.4512 1.93125 19.0137 0.509377 18.1387C0.509377 16.6895 0.454689 15.2402 0.345314 13.791ZM21.5258 17.4277V2.8125C21.5258 2.42969 21.4255 2.16081 21.225 2.00586C21.0336 1.8418 20.6599 1.71875 20.1039 1.63672V1.25391H33.598C33.598 2.64844 33.6527 4.0293 33.7621 5.39648H33.2016C33.1195 4.84961 33.001 4.40299 32.8461 4.05664C32.6911 3.70117 32.4952 3.43685 32.2582 3.26367C32.0303 3.09049 31.7934 2.97201 31.5473 2.9082C31.3103 2.8444 31.0232 2.8125 30.6859 2.8125H24.2738V8.81445H28.2523C28.5531 8.81445 28.781 8.80078 28.9359 8.77344C29.1 8.74609 29.2641 8.68229 29.4281 8.58203C29.5922 8.48177 29.7198 8.31771 29.8109 8.08984C29.9021 7.86198 29.9704 7.5612 30.016 7.1875H30.5766C30.4581 8.35417 30.3988 9.14714 30.3988 9.56641C30.3988 10.0221 30.4581 10.8333 30.5766 12H30.016C29.9704 11.6263 29.9021 11.3255 29.8109 11.0977C29.7198 10.8698 29.5922 10.7057 29.4281 10.6055C29.2641 10.5052 29.1 10.4414 28.9359 10.4141C28.781 10.3867 28.5531 10.373 28.2523 10.373H24.2738V17.4277H30.2074C30.8363 17.4277 31.3467 17.3913 31.7387 17.3184C32.1397 17.2363 32.4997 17.0859 32.8188 16.8672C33.1469 16.6484 33.4066 16.3431 33.598 15.9512C33.7895 15.5592 33.949 15.0443 34.0766 14.4062H34.5961C34.432 16.2201 34.3409 17.7513 34.3227 19H20.1039V18.6035C20.6599 18.5215 21.0336 18.403 21.225 18.248C21.4255 18.084 21.5258 17.8105 21.5258 17.4277ZM42.843 17.6055V2.8125C42.843 2.42969 42.7427 2.16081 42.5422 2.00586C42.3508 1.8418 41.9771 1.71875 41.4211 1.63672V1.25391H49.5422C51.2922 1.25391 52.5682 1.64583 53.3703 2.42969C54.1724 3.21354 54.5734 4.23893 54.5734 5.50586C54.5734 6.42643 54.3319 7.24219 53.8488 7.95312C53.3658 8.65495 52.746 9.19727 51.9895 9.58008C51.2329 9.96289 50.3944 10.1908 49.4738 10.2637L54.6281 16.9219C55.093 17.5143 55.5077 17.9655 55.8723 18.2754C56.2369 18.5762 56.606 18.7448 56.9797 18.7812V19.1641C56.8065 19.1641 56.5604 19.1367 56.2414 19.082C55.9224 19.0273 55.6854 19 55.5305 19C55.2844 19 54.9198 19.0273 54.4367 19.082C53.9536 19.1367 53.5982 19.1641 53.3703 19.1641C53.1971 19.1185 52.5637 18.3301 51.4699 16.7988C51.078 16.252 50.759 15.8099 50.5129 15.4727L46.9035 10.6328C46.5298 10.1406 46.343 9.86719 46.343 9.8125C46.343 9.73958 46.4022 9.67578 46.5207 9.62109C46.6392 9.56641 46.7577 9.53906 46.8762 9.53906C48.3801 9.53906 49.5786 9.22461 50.4719 8.5957C51.3742 7.9668 51.8254 7.05534 51.8254 5.86133C51.8254 5.35091 51.7342 4.90885 51.552 4.53516C51.3697 4.15234 51.1327 3.85156 50.841 3.63281C50.5585 3.41406 50.1984 3.24544 49.7609 3.12695C49.3326 2.99935 48.9133 2.91732 48.5031 2.88086C48.093 2.83529 47.6236 2.8125 47.0949 2.8125H45.591V17.6055C45.591 17.9883 45.6867 18.2617 45.8781 18.4258C46.0786 18.5807 46.4569 18.6992 47.0129 18.7812V19.1641C46.8579 19.1641 46.4478 19.1367 45.7824 19.082C45.1262 19.0273 44.6021 19 44.2102 19C43.8182 19 43.2941 19.0273 42.6379 19.082C41.9816 19.1367 41.576 19.1641 41.4211 19.1641V18.7812C41.9771 18.6992 42.3508 18.5807 42.5422 18.4258C42.7427 18.2617 42.843 17.9883 42.843 17.6055ZM62 19L71.6113 2.8125H66.7988C65.8418 2.8125 65.1081 3.07227 64.5977 3.5918C64.0964 4.11133 63.6908 4.89062 63.3809 5.92969H62.957C63.2214 3.76042 63.3535 2.20182 63.3535 1.25391H75.5352L65.9785 17.4277H72.1172C72.7005 17.4277 73.1882 17.3639 73.5801 17.2363C73.972 17.1087 74.3001 16.8854 74.5645 16.5664C74.8379 16.2474 75.0566 15.8828 75.2207 15.4727C75.3848 15.0625 75.5534 14.5111 75.7266 13.8184H76.1777C75.9681 16.0332 75.8633 17.7604 75.8633 19H62ZM82.0731 19.1641V18.7812C82.629 18.6992 83.0027 18.5807 83.1941 18.4258C83.3947 18.2617 83.4949 17.9883 83.4949 17.6055V2.64844C83.4949 2.26562 83.3947 1.99674 83.1941 1.8418C83.0027 1.67773 82.629 1.55469 82.0731 1.47266V1.07617C82.228 1.07617 82.6336 1.10807 83.2898 1.17188C83.9552 1.22656 84.4839 1.25391 84.8758 1.25391C85.2677 1.25391 85.7918 1.22656 86.4481 1.17188C87.1043 1.10807 87.5099 1.07617 87.6648 1.07617V1.47266C87.1089 1.55469 86.7306 1.67773 86.5301 1.8418C86.3387 1.99674 86.243 2.26562 86.243 2.64844V17.6055C86.243 17.9883 86.3387 18.2617 86.5301 18.4258C86.7306 18.5807 87.1089 18.6992 87.6648 18.7812V19.1641C87.5099 19.1641 87.1043 19.1367 86.4481 19.082C85.7918 19.0273 85.2677 19 84.8758 19C84.4839 19 83.9552 19.0273 83.2898 19.082C82.6336 19.1367 82.228 19.1641 82.0731 19.1641ZM95.9117 17.6055V2.64844C95.9117 2.26562 95.8115 1.99674 95.6109 1.8418C95.4195 1.67773 95.0458 1.55469 94.4898 1.47266V1.07617C94.7542 1.07617 95.1507 1.10807 95.6793 1.17188C96.2079 1.22656 96.6044 1.25391 96.8688 1.25391C97.124 1.25391 97.4749 1.22656 97.9215 1.17188C98.3681 1.10807 98.7053 1.07617 98.9332 1.07617L108.463 14.1602H108.517V4.01562C108.517 3.10417 108.38 2.48438 108.107 2.15625C107.843 1.82812 107.323 1.60026 106.548 1.47266V1.07617C106.813 1.07617 107.205 1.10807 107.724 1.17188C108.244 1.22656 108.636 1.25391 108.9 1.25391C109.21 1.25391 109.67 1.22656 110.281 1.17188C110.901 1.10807 111.365 1.07617 111.675 1.07617V1.47266C111.119 1.55469 110.741 1.67773 110.541 1.8418C110.349 1.99674 110.254 2.26562 110.254 2.64844V19.1641H108.599L97.7027 4.16602H97.648V16.2246C97.648 17.1452 97.7802 17.7695 98.0445 18.0977C98.3089 18.4258 98.8284 18.6536 99.6031 18.7812V19.1641C99.3388 19.1641 98.9469 19.1367 98.4273 19.082C97.9078 19.0273 97.5159 19 97.2516 19C96.9417 19 96.4814 19.0273 95.8707 19.082C95.26 19.1367 94.7997 19.1641 94.4898 19.1641V18.7812C95.0458 18.6992 95.4195 18.5807 95.6109 18.4258C95.8115 18.2617 95.9117 17.9883 95.9117 17.6055ZM118.473 19.1641V18.7812C119.029 18.6992 119.403 18.5807 119.594 18.4258C119.795 18.2617 119.895 17.9883 119.895 17.6055V2.64844C119.895 2.26562 119.795 1.99674 119.594 1.8418C119.403 1.67773 119.029 1.55469 118.473 1.47266V1.07617C118.628 1.07617 119.034 1.10807 119.69 1.17188C120.355 1.22656 120.884 1.25391 121.276 1.25391C121.668 1.25391 122.192 1.22656 122.848 1.17188C123.504 1.10807 123.91 1.07617 124.065 1.07617V1.47266C123.509 1.55469 123.131 1.67773 122.93 1.8418C122.739 1.99674 122.643 2.26562 122.643 2.64844V17.6055C122.643 17.9883 122.739 18.2617 122.93 18.4258C123.131 18.5807 123.509 18.6992 124.065 18.7812V19.1641C123.91 19.1641 123.504 19.1367 122.848 19.082C122.192 19.0273 121.668 19 121.276 19C120.884 19 120.355 19.0273 119.69 19.082C119.034 19.1367 118.628 19.1641 118.473 19.1641Z" fill="black"/>
</svg>
